<svg xmlns="http://www.w3.org/2000/svg" id="Layer_1" viewBox="0 0 449 600"><style>.st0{fill:#E2C523;} .st1{fill:#CCCCCC;} .st2{fill:#6B6B6B;} .st3{fill:#6A6A6A;} .st4{fill:#4D4D4D;} .st5{opacity:0.2;fill:#FFFFFF;enable-background:new ;} .st6{fill:#8A0000;} .st7{fill:#E5E5E5;} .st8{fill:#A70000;} .st9{fill:#754C24;} .st10{fill:#754017;} .st11{fill:#8C6239;} .st12{fill:#666666;} .st13{fill:#8C5724;}</style><path d="M255 73.9c-3.4 3.9.6.6 0 0-6.7-7.1-10.4-35.7-34.7-37.2-19.7-1.2-34.7 24-39.7 33.6C143 76.8 88 107.1 85.1 227.1 57.2 450.6 212.4 452.9 226.7 455.8c14.3 2.9 117.2-11.4 120.1-191.6C334.6 133.6 289.1 88 255 73.9z" class="st0"/><path d="M196 308l-31.6 12.4 1.8 12.1c3.7-2.3 7.4-4.5 10.9-6.6 1.2 18.8 5.5 69.2 18.2 106.2.1 4.3.2 8.6.4 12.8l50.6 11.3 31.8-40.5V308H196z" class="st1"/><path d="M195.3 432c-12.7-37-17-87.5-18.2-106.2-24.2 14.3-53.5 32.6-58.7 48.9-5-2.7-16.2-11-26.8-23.8 21 68.9 71.3 91.6 104.5 99.8-.4-6-.6-12.3-.8-18.7z" class="st2"/><path d="M288.6 430.7c17.9-15.7 35.6-40.7 46.6-79.8-14.5-4.9-40.3-26.2-61.8-36.2 3.3 21.7 5.9 75.5-12 115.8 6.8-.7 17.6-1.3 27.2.2z" class="st3"/><path d="M195.3 432c-12.7-37-17-87.5-18.2-106.2-19.8 11.6-42.9 26-53.6 39.7 10.9.9 30.9 4.2 36.9 17.2-8.1 11.4-10.5 19.3-10.5 19.3s34.3 12.6 46 45.9c-.3-5.1-.5-10.4-.6-15.9zM334 350.4c-13.7-5.3-36.2-23.3-56.2-33.6l-4.3-2.1c3.3 21.7 5.9 75.5-12 115.8 2.5-.3 5.7-.5 9.1-.7 7-13.2 46.7-48.5 46.7-48.5s.4-2.9-11-10.2c.2-1.8 18.5-14.5 27.7-20.7z" class="st4"/><path d="M98.1 233.5C139.4 223 187 83.4 187 83.4s-96.6 17.7-88.9 150.1" class="st5"/><path d="M201.7 303.2c-.1 6.3 1.8 39 12.6 37.3 12-2.9 27.6 5 30.3.7 2.7-4.4 3.4-27.1 0-37.9-8.6-8.4-42.8-6.4-42.9-.1z" class="st6"/><path d="M201.7 303.3c-62.7 4.7-118.6-57-118.6-57-36 76.4 21.6 120.9 35.3 128.3 7.4-22.9 61.8-49.6 83.6-63.7-.2-3.3-.3-6.1-.3-7.6zm136.5-96.8c15.5 71.7-68.4 93.7-94.8 95.7.4.3.8.6 1.1.9.7 2.3 1.3 5.2 1.6 8.3 58.5 18.7 79.3 37.7 95.9 42.9 43.1-60.1-3.8-147.8-3.8-147.8z" class="st7"/><path d="M363.8 485c-39.2-18.6-46.4-30.9-57.4-45.7-11-14.9-51.3-7.9-51.3-7.9s5.3-43.6 0-59.4c-3.7-11.2-9.5-21.8-12.8-29.7-5.5.8-17.9-4.3-27.9-1.9-.7.1-1.3.1-2-.1-3.1 9.8-9.3 28.9-13.5 39.5-5.8 14.7-4.2 99.3 2.9 101.4 7.1 2.1 37.6-8.4 45.2-3.7s-12.4 9.5-10.3 15.2c2.1 5.8 10.5 13.7 30.5 16.8 20 3.2 60.9-.5 102.4 28.9 11.2 7.4 25.7 2.1 46.8 24.7 4.9-10.9-6.4-67.1-52.6-78.1z" class="st8"/><path d="M162.8 391c5.7 9.7 7.2 91-3 97.3s-18.6 5.3-25.3 3.7c-6.7-1.7-80-16.3-92.3-20.7s-4.7-73-8.3-96.7c-1.7-19.3 23-14.7 34.3-11.7s88.9 18.4 94.6 28.1z" class="st9"/><path d="M162.6 390.7c-.9.2-1.9.4-2.9.6-40.4 8-18.3 53-26 64.8-.5.7-1.3 1.3-2.4 1.7.5 26.8 5.3 34.6 5.3 34.7 6.3 1.3 13.9 1.4 23-4.2 10.3-6.3 8.7-87.7 3-97.3v-.3z" class="st10"/><path d="M159.7 391.3c1-.2 1.9-.4 2.9-.6-6.9-9.7-83.3-24.7-94.5-27.7-11.3-3.1-36-7.7-34.3 11.7 2.2 14.1-7.4 60.7 1.1 67.4s92.4 24 98.9 14.1c7.7-11.9-14.4-56.9 25.9-64.9z" class="st11"/><path d="M89.1 450c-3.3-3.7-18.7-4.3-18.7-4.3-3.7 1.3-5.7 9.3-4 12.4s21 4.9 22.7 4.9 3.4-9.3 0-13zm-6.5 9s-8.3-.3-10.1-2.3-.9-7 0-7 11.3 1 12.2 2.6c.9 1.7-.2 6-2.1 6.7z" class="st12"/><path d="M83.1 371.8s-2.5-12-.2-12.5l6.2-.1V372l-6-.2zm25 5.2v-10h6v11l-6-1z" class="st13"/><path d="M114.6 368.7s3.5-2.7 2.2-7.7c-4.3-3-33.7-8.3-36-7.3s-2.3 5.9 0 7.4 27.9 8 33.8 7.6z" class="st9"/></svg>